<?xml version="1.0" encoding="utf-8"?>
<!-- Generator: Adobe Illustrator 27.7.0, SVG Export Plug-In . SVG Version: 6.00 Build 0)  -->
<svg version="1.2" baseProfile="tiny" id="Layer_1" xmlns="http://www.w3.org/2000/svg" xmlns:xlink="http://www.w3.org/1999/xlink"
	 x="0px" y="0px" viewBox="0 0 595.28 841.89" overflow="visible" xml:space="preserve">
<g>
	<path fill="#FCFCFC" d="M366.69,300.43c-1.32-2.16-2.65-4.32-3.95-6.46c5.22-1.03,6.99-0.49,12.26,3.92
		c-2.08-5.7-4.09-11.23-6.25-17.16c3.88,0.96,6.8,2.7,8.75,5.5c7.12,10.26,10.38,21.57,8.54,34.38c-3.29-4.96-7.06-9.17-12.73-12.24
		c4.97,10.96,6.01,17.08,3.86,23c-3.69-3.68-7.83-6.83-10.62-10.91c-2.08-3.04-2.42-7.27-3.68-11.45c-0.12,1.92-0.51,3.58-0.27,5.13
		c0.86,5.47,2.22,10.88,2.85,16.37c0.82,7.13,0.93,14.3-2.45,21.05c-1.2-10.46-3.13-20.55-11.26-28.17
		c-0.16-0.12-0.33-0.24-0.49-0.36c0.02,0.22,0.04,0.44,0.07,0.66c3.44,5.2,4.22,11.01,3.61,17.02c-0.42,4.13-2.29,7.74-5.03,10.84
		c-6.78-8.03-10.91-17.45-15.47-26.78c0.52,3.89,1.26,7.76,1.51,11.67c0.26,4.05,0.23,8.14-0.04,12.18
		c-0.27,4.01-0.99,7.99-1.55,12.35c-3.86-3.41-5.65-7.57-7.15-12.01c-0.69,8.15,0.92,15.89,4.26,24.19
		c-1.89-0.66-3.35-0.89-4.5-1.61c-4.96-3.11-7.18-8.15-8.8-13.43c-1.3-4.24-2.15-8.62-3.37-13.67c-1.28,10.83-2.47,20.91-3.68,31.22
		c-12.35-8.29-16.87-20.06-15.8-34.89c-0.93,2.26-2.34,4.44-2.71,6.79c-1.01,6.41-5.33,10.94-8.53,16.11
		c-0.31,0.51-0.69,0.97-1.25,1.73c-10.07-9.75-10.68-21.89-9.31-34.64c-3.73,7.63-4.4,16.42-9.68,23.93
		c-2.16-5.94-4.2-11.54-6.24-17.14c-0.49,5.03,0.74,10.14-0.89,14.98c-0.25-0.01-0.5-0.02-0.76-0.03c-0.46-1.7-0.92-3.4-1.47-5.44
		c-0.98,2.43-1.84,4.55-2.99,7.38c-2.9-10.6-5.12-20.56-4.79-31.07c-0.56,2.28-1.27,4.54-1.63,6.85c-0.39,2.55-0.38,5.16-0.69,7.72
		c-0.29,2.44-0.77,4.86-1.18,7.34c-1.95-5.73-3.47-17.7-0.54-27.62c-0.21-0.15-0.41-0.3-0.62-0.45c-2.94,4.11-5.89,8.22-9.26,12.94
		c0-4.54-0.31-8.74,0.08-12.89c0.48-5.02,1.55-9.99,2.37-14.97c0.12-0.33,0.24-0.65,0.36-0.98c-0.24,0.19-0.49,0.37-0.73,0.56
		c-1.75,2.72-3.51,5.44-5.37,8.32c-0.99-4.97,0.56-9.43,2.18-13.77c1.17-3.12,2.83-6.08,4.5-8.98c1.65-2.86,4.42-3.93,7.82-4.2
		c-1.96,5.18-3.81,10.08-5.66,14.98c0.21,0.17,0.43,0.34,0.64,0.51c2.95-4.23,6.38-7.41,12.12-5.96c-2.19,2.46-4.34,4.88-6.49,7.3
		c0.17,0.21,0.34,0.42,0.51,0.63c1.9-1.52,3.64-3.53,6.39-2.77c0.78,0.22,1.77,0.48,2.19,1.06c3.29,4.53,7.43,7.39,13.29,7.09
		c-0.55,3.46-1.09,6.79-1.62,10.11c0.31,0.11,0.62,0.21,0.93,0.32c1.46-2.92,2.92-5.84,4.42-8.85c3.18,0.18,6.42,0.7,9.6,0.44
		c3.03-0.25,6-1.32,8.99-2.03c0.93-0.22,1.89-0.37,2.81-0.62c1.77-0.48,4.02-0.5,5.19-1.62c2.96-2.82,6.35-2.84,9.95-2.69
		c1.62,0.07,3.27,0.14,4.87-0.04c2.44-0.28,4.37,0.41,5.89,2.35c0.31,0.4,0.78,0.83,1.25,0.95c6.35,1.62,12.36,5.09,19.32,3.32
		c1.87-0.48,3.9-0.31,5.83-0.61c1.9-0.3,3.19,0.22,4.2,1.95c1.11,1.9,2.52,3.63,4.39,5.29c-0.66-2.74-1.31-5.47-2.02-8.39
		c3.59-1.37,6.67-3.5,9.04-6.75c0.48-0.66,2.43-0.55,3.59-0.3c0.97,0.21,1.78,1.14,2.66,1.75c0.15,0.13,0.29,0.27,0.44,0.4
		C366.71,300.91,366.7,300.67,366.69,300.43z"/>
	<path fill="#FCFCFC" d="M280.71,242.8c-1.24-0.07-2.48-0.15-3.72-0.22c-0.05-0.19-0.09-0.37-0.14-0.56c1.07-0.3,2.12-0.67,3.21-0.9
		c11.56-2.42,23.31-2.82,35-2.09c13.52,0.84,27.08,2.25,39.23,9.13c2.86,1.62,5.38,3.82,8.08,5.71c3.01,2.1,2.58,5.01,1.77,7.88
		c-2.09,7.47-1.04,14.61,1.95,21.6c0.35,0.81,0.54,1.69,0.77,2.55c0.04,0.15-0.07,0.34-0.15,0.72c-1.46-0.55-2.9-1.08-4.57-1.71
		c1.49,1.34,2.81,2.51,4.67,4.17c-4.11,0.37-6.84,1.02-7.79,4.78c-0.16,0.63-3.04,0.93-4.61,0.79c-4.3-0.39-7.85-2.2-10.87-5.54
		c-3.85-4.26-8.52-7.53-14.21-9.12c-0.62-0.17-1.22-1.28-1.4-2.05c-0.37-1.66-0.46-3.39-0.7-5.34c5.86-1.08,12.15-0.82,18.46-0.05
		c0.15,0.1,0.3,0.2,0.46,0.31c-0.04-0.21-0.07-0.41-0.11-0.62c-3.15-1.46-6.31-2.91-9.93-4.58c-1.01-6.42-2.55-8.01-7.6-7.1
		c-2.96,0.54-4.51,4.85-3.18,10.26c-3.54-1.33-6.7-2.38-9.75-3.71c-4.98-2.18-9.88-2.33-14.97-0.32c-3.75,1.49-7.66,2.59-12.08,4.05
		c1.49-4.06,2.6-7.63-0.98-10.13c-1.84-1.29-4.19-1.63-6.36-0.09c-2.07,1.46-3.02,4.27-2.38,7.04c-3.4,1.34-6.76,2.67-10.13,4
		c0.1,0.11,0.19,0.21,0.29,0.32c6.23,0,12.46,0,18.58,0c-0.35,2.52-0.67,4.88-1.06,7.69c-6.43,2.02-12.28,6.12-17.58,11.28
		c-3.62,3.52-8.36,4.5-13.34,4.31c-0.54-5.65-1.76-6.68-8.69-7.13c1.86-1.23,3.43-2.28,5-3.32c-0.07-0.15-0.14-0.29-0.21-0.44
		c-1.41,0.4-2.82,0.8-4.67,1.32c0.64-1.72,1.13-3.17,1.72-4.58c2.99-7.17,1.98-14.36,0.31-21.61c-0.24-1.02,0.03-2.58,0.7-3.32
		c5.89-6.54,13.42-10.42,21.75-12.9c0.49-0.15,1.06,0,1.6,0.01c0,0-0.03-0.03-0.03-0.03c-1.79,1.31-3.59,2.62-5.38,3.93
		c-0.14,0.14-0.29,0.28-0.43,0.41c0,0-0.07,0.07-0.07,0.07c-0.19,0.15-0.37,0.3-0.56,0.45c0,0-0.01,0-0.01,0
		c-0.17,0.18-0.33,0.35-0.5,0.53c-1.88,2.19-3.89,4.32-3.16,7.6c0.13,0.19,0.26,0.37,0.39,0.56c0,0-0.01-0.01-0.01-0.01
		c1.13-0.53,2.25-1.07,3.38-1.6c4.44-3.26,9.24-2.35,14.09-1.31c2.3,0.49,4.62,1.03,6.95,1.22c2.42,0.2,4.09-1.26,4.82-3.46
		c0.85-2.55-0.19-5.07-2.67-6.05c-2.61-1.04-5.4-1.62-8.11-2.4C281.45,243.08,281.08,242.94,280.71,242.8z M351.46,258.04
		c0.68-5.28-1.35-8.99-5.98-12.02c-6.96-4.55-14.42-2.68-20.9,0.91c-2.2,1.22-2.67,3.59-1.69,5.8c1.22,2.73,3.38,3.98,5.94,3.39
		c1.73-0.4,3.42-1.03,5.16-1.32c5.49-0.91,11.01-1.86,15.59,2.7C349.94,257.86,350.69,257.84,351.46,258.04z"/>
	<path fill="#FCFCFC" d="M189.57,359.26c0.16,0.08,0.32,0.16,0.48,0.23c4.15,1.82,4.62,5.09,4.61,9.31
		c-0.16,49.29-0.09,98.58-0.1,147.87c0,12.1,7.44,21.01,16.32,24.31c3.08,1.15,6.52,1.88,9.8,1.88
		c57.78,0.11,115.55,0.13,173.33,0.04c12.94-0.02,23.08-7.71,25.91-21.07c0.22-1.04,0.1-2.16,0.13-3.24
		c0.15-0.86,0.43-1.72,0.44-2.58c0.05-4.6,0.03-9.21,0.03-13.81c-0.01-46.58-0.02-93.17-0.03-139.75c1.83-1.14,3.65-2.27,5.48-3.41
		c-0.01,19.49-0.03,38.98-0.02,58.47c0.01,10.92,0.06,21.84,0.09,32.75c-0.03,20.54-0.07,41.08-0.09,61.62c0,2.07,0.1,4.13,0.15,6.2
		c-0.62,15.25-10.23,26.52-24.7,30.09c-1.35,0.33-2.77,0.41-4.16,0.6c-0.37-0.03-0.75-0.06-1.12-0.09
		c-6.32,0.05-12.64,0.14-18.96,0.14c-51.2,0.01-102.41,0-153.61-0.01c-1.71,0-3.43-0.08-5.14-0.12c-0.2,0.03-0.39,0.07-0.59,0.1
		c-12.75-1.04-24.35-9.72-28.07-23.52c-0.73-2.71-1.11-5.6-1.11-8.41c-0.06-52.18-0.05-104.37-0.04-156.55
		c0-0.36,0.05-0.72,0.08-1.08C188.98,359.24,189.28,359.25,189.57,359.26z"/>
	<path fill="#FCFCFC" d="M426.13,211.88c0,3.21,0,6.43,0,9.64c-0.03,3.45-0.05,6.89-0.08,10.34c0.01,12.67,0.01,25.34,0.02,38.01
		c-1.15,1.08-2.3,2.17-3.57,3.36c-0.84-1.12-1.46-1.95-2.08-2.78c0.03-1.62,0.09-3.24,0.08-4.86c-0.02-19.01-0.04-38.02-0.07-57.02
		c0.04-18.2,0.08-36.4,0.09-54.6c0-0.78-0.3-1.56-0.46-2.34c-1.04-11.28-9.13-20.77-19.46-23.37c-2.14-0.54-4.39-0.92-6.59-0.93
		c-57.62-0.05-115.24-0.04-172.86-0.04c-15.64,0-26.63,12.93-26.62,26.63c0.04,34.68,0.01,69.36,0.03,104.04
		c0,2.79,0.53,5.73-3.37,6.72c-1.93-0.74-2.65-2.35-2.65-4.83c0.07-35.31-0.06-70.63,0.09-105.94c0.06-13.7,6.72-23.59,18.92-29.7
		c4.16-2.08,8.65-2.91,13.34-2.9c57.71,0.03,115.42-0.06,173.13,0.08c14.52,0.04,27.64,9.52,30.8,24.75
		c0.81,3.92,0.89,7.98,1.3,11.98c-0.06,0.8-0.16,1.61-0.16,2.41c-0.01,13.34-0.03,26.68-0.01,40.02
		C425.96,204.32,426.07,208.1,426.13,211.88z"/>
	<path fill="#FCFCFC" d="M211.7,332.62c0.06-5.24,0.23-10.48,0.11-15.71c-0.05-2.11,0.65-3.11,2.66-3.43
		c3.55-0.57,7.09-1.19,10.51-1.76c0.52,5.6,0.56,10.75,1.56,15.71c1.23,6.1,2.98,12.13,5.07,17.99c0.81,2.27,0.32,3.55-1.04,4.9
		c-4.45,4.41-9.84,7.11-15.96,8.33c-9.95,1.99-18.38-1.3-25.48-8.04c-5.39-5.12-8.21-11.79-9.73-19.02
		c-0.2-0.94-0.38-1.89-0.53-2.61c8.27-1.85,16.51-3.69,24.75-5.53c-0.02-0.39-0.05-0.79-0.07-1.18c-1.87-0.22-3.74-0.45-6.27-0.75
		c5.19-2.95,5.38-8.15,6.81-12.95c1.63,2.44,3.11,4.57,4.49,6.76c0.36,0.56,0.53,1.31,0.58,1.99c0.4,5.79,0.73,11.58,1.13,17.36
		c0.08,1.14,0.37,2.26,0.57,3.38c0.15,0.67,0.3,1.34,0.45,2c0.13-0.04,0.26-0.09,0.39-0.13C211.7,337.5,211.7,335.06,211.7,332.62z"
		/>
	<path fill="#FCFCFC" d="M171.6,280.97c2.85,0.62,5.67,1.42,8.55,1.79c2.31,0.29,4.69,0,7.03,0.09c0.85,0.03,1.8,0.21,2.51,0.64
		c2.44,1.46,3.56,4.98,2.64,8.68c-0.65,2.62-2.62,3.59-5.25,3.74c-3.98,0.22-7.95,0.59-11.91,1.02c-0.99,0.11-1.94,0.68-2.9,1.04
		c0,0.25-0.01,0.5-0.01,0.74c1.3,0.31,2.59,0.86,3.89,0.89c4.24,0.11,8.48-0.05,12.71,0.09c1.02,0.04,2.29,0.61,2.97,1.36
		c2.87,3.19,1.08,9.25-3.03,10.37c-1.52,0.41-3.13,0.55-4.71,0.65c-3.99,0.26-7.99,0.42-12.16,1.19c1.5,0.45,3,0.9,5.09,1.52
		c-2.81,1.11-5.26,2.07-7.64,3.01c1.33,1.05,1.88,1.11,7.01,0.31c2.53-0.39,5.05-0.93,8.1-1.5c-2.46,3.57-5.52,5.2-9.09,5.78
		c-6.8,1.11-12-1.8-14.95-8.63c-5.45-12.62-5.36-25.26,0.57-37.75c2.84-5.97,7.59-8.77,14.23-8.36c3.57,0.22,7.15,0.26,10.71,0.58
		c1.91,0.17,4.07,0.41,4.33,3.06c0.41,4.28-0.44,6.07-3.59,6.64c-3.21,0.58-6.49,0.75-9.74,1.11c-1.72,0.19-3.43,0.42-5.14,0.63
		C171.75,280.09,171.67,280.53,171.6,280.97z"/>
	<path fill="#FCFCFC" d="M430.13,324.31c5.61,1.1,10.79,3.04,16.03,1.33c-2.51-0.86-5.02-1.73-7.52-2.59
		c0.04-0.22,0.09-0.44,0.13-0.66c1.6-0.37,3.21-0.74,4.81-1.11c-0.01-0.1-0.03-0.21-0.04-0.31c-3.92-0.27-7.84-0.51-11.75-0.81
		c-1.68-0.13-3.4-0.22-5.02-0.62c-3-0.74-5.05-4.12-4.61-7.25c0.44-3.13,2.38-4.46,6.16-4.54c4.46-0.09,8.92-0.35,13.38-0.59
		c0.5-0.03,0.97-0.42,2.1-0.94c-1.82-0.7-3.14-1.53-4.51-1.66c-3.74-0.36-7.5-0.48-11.25-0.59c-3.56-0.1-6.56-3.38-5.82-6.86
		c0.81-3.82,3.67-6.41,7.15-6.29c3.8,0.13,7.63-0.54,11.44-0.96c0.83-0.09,1.61-0.62,2.41-0.95c0.01-0.27,0.03-0.54,0.04-0.81
		c-1.71-0.31-3.41-0.71-5.13-0.92c-3.45-0.42-6.93-0.65-10.38-1.11c-2.63-0.35-3.67-2.22-3.93-4.68c-0.28-2.67,0.6-4.77,3.44-5.07
		c4.1-0.44,8.24-0.54,12.36-0.7c1.14-0.05,2.3,0.14,3.44,0.29c6.77,0.92,10.07,5.56,12.03,11.47c3.94,11.89,4.51,23.71-1.54,35.15
		C448.31,332.44,437.75,333.43,430.13,324.31z"/>
	<path fill="#FCFCFC" d="M398.76,338.07c0.58-2.99,1.21-5.97,1.72-8.97c0.3-1.74,0.37-3.52,0.65-5.26c0.11-0.66,0.35-1.5,0.83-1.87
		c2.68-2.08,5.44-4.04,7.98-5.89c0.66,1.84,1.3,4.34,2.44,6.59c1.14,2.25,2.76,4.25,4.33,6.59c-2.32,0-4.66,0-6.99,0
		c-0.04,0.25-0.08,0.49-0.12,0.74c7.95,3.46,16.13,6.14,25.26,6.6c-3.6,9.29-8.94,16.72-18.32,20.42c-4.82,1.9-9.78,2.76-15.11,1.83
		c-7.66-1.33-10.99-6.83-12.22-13.35c-0.74-3.92-0.2-8.14-1.34-11.89c-1.51-5,1.77-9.13,1.43-13.8c-0.09-1.19,0.35-2.41,0.56-3.69
		c2.54,1.34,5.15,2.64,7.66,4.13c0.49,0.29,0.78,1.31,0.76,1.98c-0.1,4.2-0.33,8.4-0.5,12.61c-0.04,1.04-0.01,2.09-0.01,3.13
		C398.1,337.99,398.43,338.03,398.76,338.07z"/>
	<path fill="#F8F8F8" d="M342.42,519.51c-0.76-0.13-1.54-0.44-2.28-0.36c-1.35,0.16-3.31-1.92-3.94,0.36
		c-0.55,1.99-1.03,4.61,1.49,6.05c1.54,0.88,3.17,1.68,4.86,2.22c8.72,2.75,17.67,3.89,26.82,3.84c7.93-0.04,15.86-0.01,23.41-2.83
		c2.07-0.77,3.91-2.18,5.65-3.78c-6.11,3.24-12.65,2.46-18.97,2.11c-5.9-0.33-11.74-1.63-17.59-2.63c-1.08-0.18-2.15-0.87-3.04-1.56
		c-1.63-1.26-1.73-2.8-0.34-4.38c2.36-2.69,5.44-4.03,8.87-4.54c8-1.2,16.02-1.89,23.89,0.76c1.66,0.56,3.18,1.52,4.77,2.29
		c0.21,0.16,0.41,0.31,0.62,0.47c0.48,0.51,0.95,1.01,1.43,1.52c0.12-0.12,0.24-0.23,0.36-0.35c-0.49-0.55-0.98-1.09-1.47-1.64
		c-0.06-0.17-0.18-0.29-0.35-0.36c-3.13-3.21-7.15-4.91-11.37-5.59c-9.39-1.51-18.7-1.36-27.29,3.62c-1.21,0.7-2.4,1.43-4.14,2.47
		c3.67-5.23,8.38-8,13.92-8.23c6.56-0.27,13.22,0.19,19.74,1.03c4.46,0.57,8.38,2.98,11.38,6.57c3.73,4.46,2.95,9.95-2.43,12.2
		c-4.51,1.89-9.45,3.09-14.32,3.74c-5.48,0.73-11.1,0.87-16.63,0.6c-8.73-0.43-17.43-1.34-25.73-4.49
		c-4.82-1.83-7.79-3.97-3.94-10.27c-4.72-3.55-4.6-8.61-3.95-13.63c0.32-2.5,1.54-4.88,2.35-7.31c0.57,0.37,1.14,0.73,1.71,1.1
		c-1.17,6.22-0.53,12.09,3.41,17.31c-0.81,1.96,0.68,1.53,1.68,1.61c0.32,0.23,0.65,0.47,0.97,0.7c0.19,0.13,0.39,0.27,0.58,0.4
		l-0.02-0.02C342.49,518.84,342.45,519.17,342.42,519.51z"/>
	<path fill="#F6F5F5" d="M308.1,216.15c-0.35,0.14-0.85,0.49-1.37,0.52c-6.25,0.4-12.51,0.62-18.75,1.16
		c-5.33,0.46-10.54,1.58-15,4.78c-0.83,0.6-1.23,1.79-2.19,3.26c7.31,0,13.62,0,19.93,0c0.01,0.12,0.03,0.23,0.04,0.35
		c-8.83,1.68-17.66,3.37-26.49,5.05c0.01,0.2,0.03,0.4,0.04,0.61c1.14,0,2.28,0.09,3.41-0.02c6.57-0.64,13.12-1.49,19.7-1.94
		c5.04-0.34,10.11-0.25,15.16-0.21c3.1,0.02,6.2,0.31,9.32,0.79c-13.48,1.1-27.16,0.9-39.7,7.19c19.13-4.65,38.32-3.97,57.53-1.06
		c0,0.24,0.01,0.48,0.01,0.72c-1.68-0.09-3.37-0.18-5.05-0.29c-1.69-0.1-3.38-0.23-5.07-0.32c-6.6-0.36-13.22-1.15-19.81-0.96
		c-12.6,0.36-25.07,1.87-36.87,6.84c-7.22,3.04-13.59,7.19-18.33,13.56c-0.21,0.29-0.44,0.58-0.69,0.83
		c-0.11,0.11-0.31,0.12-0.65,0.23c0.81-4.73,3.42-8.26,7.18-10.66c4.48-2.86,9.34-5.14,14.02-7.68c0.91-0.49,1.79-1.03,2.55-2.2
		c-1.61,0.11-3.22,0.16-4.82,0.33c-5.26,0.56-10.48,1.02-14.34-3.79C265.74,219.69,285.5,212.75,308.1,216.15z"/>
	<path fill="#FAFAFA" d="M296.11,294.99c-3.89,5.85-9.02,9.02-16.35,10.35c1.7-1.62,2.82-2.69,3.94-3.76
		c-0.07-0.11-0.13-0.22-0.2-0.34c-3.88,1.17-7.77,2.35-11.65,3.52c-0.07-0.16-0.14-0.31-0.21-0.47c1.06-1.15,2.11-2.31,3.17-3.46
		c-4.54,1.29-8.94,2.56-13.63,0.12c1.48-0.58,2.77-1.08,4.06-1.58c0-0.11,0-0.21,0-0.32c-2.45,0-4.89,0-7.34,0
		c-0.01-0.22-0.01-0.44-0.02-0.66c2.24-0.62,4.65-0.89,6.67-1.94c2.96-1.53,5.9-3.32,8.37-5.53c4.26-3.82,8.81-6.92,14.47-8.14
		c0.7-0.15,1.57-0.25,2.18,0.03c2.53,1.13,5.03,2.03,7.87,1.13c0.51-0.16,1.23,0.06,1.75,0.31c2.58,1.21,5.14,2.5,7.84,3.83
		c0.46,7.72-7.02,8.94-11.99,12.99C295.44,298.75,295.77,296.87,296.11,294.99z"/>
	<path fill="#F8F8F8" d="M342.53,191.75c7.4-0.13,12.95,2.51,16.43,9.54c4.42,8.94,9.42,17.59,14.16,26.36
		c0.11,0.21,0.13,0.47,0.34,1.29c-5.55-5.96-10-11.93-13.13-18.9c-1.57-3.49-3.27-7.01-5.54-10.04c-1.23-1.64-3.7-3.07-5.73-3.25
		c-4.57-0.41-9.18-0.16-13.73,1.27c-6.52,2.04-13.18,3.65-20.11,3.51c-5.86-0.12-13.67-7.86-12.68-13.32
		c0.71-3.9,2.84-7.54,4.58-11.92c1.81,3.15,3.03,5.51,4.47,7.73c3.11,4.78,7.6,7.14,13.31,7.2c5.5,0.06,11,0.13,16.5,0.19
		C341.78,191.53,342.15,191.64,342.53,191.75z"/>
	<path fill="#FAFAFA" d="M349.52,300.54c0.3,0.15,0.87,0.43,1.32,0.66c0.61,1.78-6.38,1.21-9.23-0.56
		c-0.18-0.11-0.35-0.24-0.78-0.15c0.69,1.08,1.38,2.15,2.5,3.91c-4.1-1.25-7.58-2.32-11.4-3.48c1.22,1.37,2.33,2.63,3.72,4.2
		c-6.78-0.82-11.21-4.6-14.88-9.64c-0.18,0.16-0.36,0.32-0.55,0.48c0.4,1.57,0.79,3.14,1.19,4.71c-0.21,0.18-0.42,0.36-0.63,0.54
		c-2.04-1.91-4.07-3.82-5.9-5.53c0.01-0.05-0.08,0.58-0.18,1.26c-4.54-1.68-5.16-5.57-5.68-8.83c2.49-1.42,4.73-2.71,6.99-3.99
		c0.31-0.17,0.67-0.46,0.96-0.41c3.39,0.56,6.58-0.91,9.74-1.07c3.03-0.16,6.34,1.94,9.25,3.56c2.23,1.24,4.33,3.03,5.92,5.03
		c3.49,4.39,8.11,6.14,13.39,6.79c0.23,0.03,0.45,0.14,0.68,0.21c0.05,0.27,0.1,0.54,0.15,0.81
		C353.89,299.53,351.69,300.04,349.52,300.54z"/>
	<path fill="#FCFCFC" d="M225.44,512.06c-3.97,1.96-7.91,3.95-9.28,8.82c0.52-0.5,1.06-0.98,1.56-1.5c4.21-4.34,9.48-6.25,15.36-6.2
		c4.42,0.04,8.93,0.24,13.23,1.17c2.82,0.62,5.57,2.38,7.87,4.23c1.11,0.89,1.63,3.28,1.37,4.8c-0.16,0.91-2.28,1.93-3.63,2.12
		c-4.39,0.6-8.82,0.91-13.25,1.2c-4.01,0.26-8.03,0.31-12.04,0.53c-3.7,0.2-6.99-0.82-9.94-3.03c-0.14-0.38-0.27-0.76-0.41-1.14
		c-0.16,0.07-0.32,0.14-0.48,0.22c0.24,0.38,0.48,0.76,0.72,1.14c1.52,1.34,3.04,2.69,4.56,4.03c0,0.5,0,0.99,0,1.49
		c-7.65-2.19-9.59-8.98-3.84-14.31c2.15-1.99,5.07-3.14,7.64-4.68C225.08,511.33,225.26,511.7,225.44,512.06z"/>
	<path fill="#F6F6F6" d="M246.55,470.49c0.49,2.92,0.89,5.3,1.29,7.69c-0.21,0.15-0.42,0.29-0.63,0.44
		c-5.75-5.54-11.49-11.07-17.24-16.61c2.76,7.51,7.18,13.89,13.15,19.94c-4.66-1.18-7.61-3.97-9.92-7.04
		c-3.59-4.76-6.64-9.94-9.7-15.07c-0.62-1.04-0.7-2.86-0.24-3.99c2.9-7.04,6.03-13.98,9.17-21.15c2.85,1.05,5.23,1.93,7.88,2.91
		c-3.35,5.35-6.63,10.61-10.35,16.56c10.3,8.96,20.76,18.06,31.22,27.15C255.32,479.35,251.18,475.02,246.55,470.49z"/>
	<path fill="#F8F8F8" d="M293.93,190.31c-0.12-1.31-0.24-2.62-0.42-4.56c-1.78,2.85-3.21,5.14-4.65,7.43
		c-2.61,4.15-6.22,7.05-10.85,8.65c-5.2,1.79-10.38,3.68-15.65,5.25c-2.25,0.67-4.71,0.7-7.08,0.93c-2.24,0.22-3.12-0.86-2.71-3.05
		c0.25-1.3,0.48-2.59,0.79-4.28c3.95-0.74,8.03-1.66,12.16-2.24c8.16-1.14,14.71-5.21,20.29-10.97c4.6-4.75,9.33-9.28,15.61-11.76
		c1.97-0.78,4.01-1.4,6.7-2.32c-4.83,6.15-9.17,11.66-13.5,17.17C294.39,190.47,294.16,190.39,293.93,190.31z"/>
	<path fill="#F6F6F6" d="M304.47,442.03c-8.65,0.32-6.83,0.42-6.95-6.61c-0.07-3.87,0-7.74,0.02-11.61c0-0.16,0.13-0.32,0.28-0.66
		c2.55-0.13,5.19-0.26,7.82-0.4c0.18,0.02,0.36,0.03,0.54,0.05c6.77-0.06,13.54-0.11,20.31-0.22c1.13-0.02,2.27-0.24,3.39-0.47
		c3.48-0.73,5.05,0.4,5.02,4.01c-0.03,3.39-0.41,6.78-0.51,10.18c-0.09,2.96-0.02,5.92-0.02,9.1c-17.37,0.83-34.54,1.11-52.22-0.4
		c3.27-3.81,7.71-1.28,10.99-3.18c0-5.17,0-10.38,0-15.97c-2.45-0.17-4.81-0.36-7.17-0.5c-1.96-0.12-3.64-0.45-2.94-3.21
		c3.69,0.23,7.39,0.46,11.26,0.7c0,0.83,0,1.63,0,2.43c0.13,0.2,0.25,0.4,0.38,0.61c0.05,4.78,0.08,9.56,0.14,14.34
		c0.04,3.11,1.23,4.56,4.32,4.55c6.45-0.02,12.91-0.2,19.36-0.5c3.63-0.17,7.26-0.67,10.88-1.06c2.12-0.23,3.58-0.79,3.52-3.59
		c-0.09-4.27,0.39-8.56,0.65-13.26c-10.26,0.51-20.12,1.01-29.99,1.51c-0.03-0.24-0.05-0.47-0.08-0.71
		c4.13-0.49,8.27-0.98,12.4-1.46c0-0.11,0-0.22,0-0.32c-4.46,0-8.93-0.07-13.39,0.09c-0.6,0.02-1.49,1.12-1.67,1.85
		c-0.28,1.18-0.08,2.48-0.08,3.71c5.1,0.86,5.1,0.86,4.77,2.87c-1.06,0.13-2.2,0.05-3.16,0.43c-0.98,0.39-2.61,1.41-2.51,1.84
		c0.36,1.66,0.66,3.31,3.4,3.39c6.39,0.19,12.75,1.01,19.13,1.58c0.03,0.23,0.06,0.45,0.09,0.68c-2.15,0.01-4.29,0.03-6.44,0.04
		c-0.24-0.01-0.48-0.02-0.72-0.03c-2.29-0.01-4.58-0.02-6.88-0.03C307.11,441.86,305.79,441.95,304.47,442.03z"/>
	<path fill="#FAFAFA" d="M307.75,268.76c3.35-0.34,5.91,0.94,8.4,2.96c0.98,0.8,2.8,0.75,4.25,0.76c2.21,0.01,4.11,0.7,4.65,2.83
		c0.55,2.18,0.31,4.54-1.94,5.91c-0.54,0.33-1.73,0.32-2.17-0.06c-2.14-1.88-4.08-2.15-6.73-0.65c-4.64,2.62-9.25,2.8-13.87-0.1
		c-2.11-1.32-4.11-1.44-5.93,0.66c-0.34,0.4-1.58,0.67-1.74,0.46c-1.02-1.25-2.18-2.55-2.67-4.03c-0.62-1.88,0.17-3.92,2.15-4.35
		c4.52-0.98,8.8-2.53,13.03-4.32C305.94,268.48,306.95,268.76,307.75,268.76z"/>
	<path fill="#F3F2F2" d="M388.2,402.91c5.19,5.6,3.27,12.38,2.93,19c-0.2,3.89-2.74,6.02-5.52,7.62c-6.1,3.52-12.45,6.6-18.7,9.85
		c-0.21,0.11-0.52,0.01-1.31,0.01c3.55-2.22,6.78-4.05,9.81-6.18c3.82-2.69,7.5-5.59,11.2-8.45c2.28-1.76,2.28-1.92,1.64-5.49
		c-3.61,3.03-7.13,5.98-10.65,8.93c4.39-6.34,9.7-12.02,11.71-20.33c-11.23,6.84-22.6,12.2-35.01,15.4c0.06-1.21-0.1-2.24,0.2-3.1
		c0.26-0.73,0.98-1.7,1.63-1.81C368.41,416.32,379.43,411.7,388.2,402.91z"/>
	<path fill="#FAFAFA" d="M240.11,263.49c-1.17,2.1-2.36,4.24-3.54,6.35c-6.7-1.39-8.96-0.62-10.49,3.43
		c2.51-0.34,5.08-0.68,8.39-1.13c-0.82,3.17-1.59,5.75-2.11,8.37c-0.29,1.44-0.37,2.99-0.14,4.43c0.28,1.81,1.01,3.6-1.31,4.55
		c-2.19,0.9-4.01,0.29-5.36-1.63c-4.1-5.83-4.72-15.71-0.51-22.64C228.7,259.16,235.39,258.71,240.11,263.49z"/>
	<path fill="#F8F8F8" d="M378.96,272.44c3.15,0.22,5.76,0.4,8.3,0.58c-0.42-3.6-3.87-4.75-9.51-2.57c-1.07-1.94-2.28-3.89-3.18-5.97
		c-0.19-0.43,0.64-1.64,1.28-2.02c3.86-2.34,9.49-2.28,13.16,3.28c4.35,6.62,1.99,18.68-2.43,23.6c-0.55,0.61-2.17,1.25-2.36,1.04
		c-0.89-1-1.82-2.21-2.08-3.48c-0.73-3.54-1.09-7.16-1.7-10.73C380.28,275.24,379.75,274.37,378.96,272.44z"/>
	<path fill="#FAFAFA" d="M420.34,279.92c0.22,1.3,0.43,2.6,0.65,3.9c0.29,1.64-0.06,2.94-1.58,3.94c-3.26,2.15-6.89,2.67-10.53,1.94
		c-4.51-0.9-5.52-5.78-5.08-10.24c0.13-1.39,0.63-2.75,1.07-4.09c0.71-2.14,2.36-3.47,4.44-3.84c3.55-0.62,8.6,0.45,10.75,4.71
		c0.53,1.04,0.43,2.4,0.63,3.62C420.58,279.88,420.46,279.9,420.34,279.92z"/>
	<path fill="#F6F5F5" d="M303.44,212.17c-9.47,0.1-18.95,0.52-28,3.5c-5.21,1.72-10.19,4.2-15.16,6.57
		c-4.97,2.38-9.81,5.06-14.71,7.59c-0.44,0.23-0.96,0.31-1.82,0.57c23.34-19.08,49-27.22,78.52-19.63c0.38,0.1,0.61,0.78,1.1,1.44
		c-4.39,0-8.33,0-12.28,0c-0.2,0-0.41-0.01-0.61-0.01c-1.24-0.02-2.48-0.03-3.72-0.05c-0.21,0-0.41-0.01-0.62-0.01
		c-0.7,0-1.4,0.01-2.09,0.01C303.85,212.16,303.64,212.17,303.44,212.17z"/>
	<path fill="#F5F4F4" d="M230.96,403.05c0.71-1.2,1.23-0.55,1.83,0.14c7.69,8.94,18.27,12.13,29.45,14.94
		c0.04,0.86,0.09,1.99,0.17,3.75c-10.96-2.4-20.71-6.78-30.52-12.3c-0.35,5.49-0.78,10.74-0.94,15.99c-0.03,0.95,0.81,2.4,1.66,2.83
		c4.97,2.56,10.05,4.91,15.12,7.27c2.68,1.25,5.43,2.35,8.13,3.55c0.4,0.18,0.74,0.52,0.89,1.31c-2.38-0.72-4.78-1.36-7.12-2.18
		c-6.31-2.21-12.57-4.54-18.9-6.7c-1.67-0.57-2.14-1.45-2.07-3.14c0.26-6.45,0.27-12.92,0.65-19.37c0.12-2.06,1.13-4.08,1.73-6.11
		L230.96,403.05z"/>
	<path fill="#FCFCFC" d="M210.29,273.67c0.34,3.4,0.01,6.42-3.67,8.07c-3.55,1.58-10.49-0.06-12.72-3.16
		c-0.1-0.14-0.36-0.3-0.34-0.37c1.35-3.59-1.01-7.84,2.22-11.17c3.05-3.14,6.82-3.19,10.45-2.41c2.55,0.54,3.82,3.09,4.04,5.8
		C210.36,271.51,210.29,272.59,210.29,273.67z"/>
	<path fill="#F6F6F6" d="M331.77,224.74c2.72,3.88,8.34,5.13,11.51,2.49c0.72,0.49,1.53,0.91,2.13,1.52
		c0.43,0.44,0.94,1.31,0.77,1.72c-0.26,0.61-1.12,1.42-1.66,1.38c-4.87-0.37-9.72-0.89-14.58-1.39c-1.38-0.14-2.08-0.72-2.21-2.36
		c-0.41-5.37-1.09-10.72-1.67-16.15c12.42,1.26,12.42,1.26,12.53,3.24c-2.32,0.59-4.65,1.03-6.84,1.86
		c-0.52,0.2-0.54,1.73-0.87,2.96c4.33-2.88,11.47-2.14,15.84,1.43c0.67-1.99-0.7-2.78-1.98-3.53c-0.76-0.44-1.7-0.59-2.41-1.09
		c-0.43-0.3-0.56-1.03-0.83-1.57c0.51-0.08,1.05-0.34,1.51-0.23c2.31,0.57,4.6,1.23,7.56,2.04c-0.91,2.83-1.67,5.6-2.73,8.25
		c-0.47,1.18-3.17,0.51-3.75-0.85c-1.79-4.22-7.27-5.22-10.46-1.91C333.03,223.21,332.48,223.91,331.77,224.74z"/>
	<path fill="#F3F2F2" d="M221.1,529.95c0-0.5,0-0.99,0-1.49c4.87,2.12,10.03,2.91,15.28,3.06c11.61,0.33,23.16-0.08,34.44-3.24
		c1.97-0.55,3.94-1.26,5.71-2.25c1.05-0.59,2.23-1.77,2.47-2.87c0.9-4.25,0.04-4.96-4.15-4.03c-1.15,0.26-2.33,0.42-3.52,0.48
		c7.38-4.31,8.49-10.23,7.33-18.15c-0.36-2.46-0.39-4.96-0.58-7.54c0.17-0.09,0.38-0.29,0.6-0.3c3.34-0.12,4.63-2.04,4.79-5.17
		c0.03-0.6,0.83-1.15,1.27-1.73c0.24,0.14,0.48,0.28,0.73,0.42c0,1.85,0.62,4.07-0.18,5.45c-0.74,1.27-3.01,1.66-4.57,2.41
		c2.08,7.71,5.76,15.45-1.01,23.25c0.03-0.3-0.06-0.1,0.01,0.04c2.35,5.54,1.34,8.02-4.26,10.17c-6.71,2.57-13.75,3.69-20.87,4.14
		c-5.99,0.38-12.04,0.88-18,0.44C231.36,532.66,226.25,531.03,221.1,529.95z"/>
	<path fill="#F5F4F4" d="M358.41,501.42c4.97-1.73,9.8-4.07,15.29-3.46c2.98,0.33,5.95,0.73,9.12,1.13
		c0.62,2.62,1.23,5.25,1.85,7.88c-0.19,0.2-0.39,0.4-0.58,0.6c-1.22-0.85-2.78-1.45-3.59-2.59c-3.64-5.12-7.11-5.82-12.78-3.8
		c-7.01,2.5-13.93,5.25-21.11,7.98c-1.41-2.23-2.97-4.69-4.53-7.16c0.15-0.17,0.3-0.33,0.45-0.5c1.14,1.17,2.33,2.3,3.41,3.53
		c2.48,2.81,2.49,2.83,4.98-0.44c-1.12-0.75-2.25-1.46-3.33-2.25c-0.99-0.72-1.93-1.52-3.54-2.8c3.14-0.47,5.58-0.84,8.03-1.21
		c0.05-0.14,0.1-0.28,0.15-0.42c-1.06-0.38-2.12-0.76-3.18-1.14c0.35-0.3,0.71-0.59,1.06-0.89c4.61,0,9.22,0,13.95,0
		c-2.16,1.75-4.17,3.38-6.17,5c-0.28,0.13-0.57,0.27-0.85,0.4c0.12,0.15,0.23,0.31,0.35,0.46
		C357.72,501.64,358.07,501.53,358.41,501.42z"/>
	<path fill="#F5F4F4" d="M246.45,223.9c2.57-4.04-0.15-7.57-0.3-11.26c-0.13-3.32,0.76-6.68,3.64-9.75
		c-0.07,1.14-0.01,1.79-0.16,2.38c-1.1,4.32,0.46,6.79,4.97,6.42c4.81-0.39,9.59-1.55,14.3-2.69c5.05-1.22,9.97-3.02,15.33-2.39
		C270.63,209.92,257.88,215.03,246.45,223.9z"/>
	<path fill="#F5F4F4" d="M245.17,406.23c-9.52-7.16-15.1-17.46-18.6-29.87c2.82-0.73,5.65-1.47,8.14-2.11
		c-0.27,10.89,4.49,20.22,9.74,29.39c0.39,0.69,0.76,1.4,1.13,2.1C245.44,405.91,245.3,406.07,245.17,406.23z"/>
	<path fill="#F5F4F4" d="M268.75,484.06c5.37-1.36,10.74-2.72,16.64-4.22c-2.02-0.42-3.47-0.73-5.6-1.17
		c5.2-1.61,10.18-2.38,14.35-4.65c4.13-2.25,7.44-6.01,11.39-9.35c-1.19,3.87-2.12,7.5-3.48,10.96c-0.44,1.12-1.88,2.15-3.09,2.6
		c-7.83,2.92-15.93,4.77-24.25,5.68c-1.96,0.22-3.89,0.62-5.84,0.93C268.83,484.58,268.79,484.32,268.75,484.06z"/>
	<path fill="#F6F5F5" d="M354.4,472.4c-5.18,2.35-10.16,4.6-15.13,6.86c-0.19-0.33-0.38-0.66-0.56-0.98
		c1.43-0.93,2.8-1.98,4.31-2.76c1.61-0.83,3.35-1.4,4.93-2.49c-5.91,0-11.82,0.12-17.72-0.08c-1.51-0.05-3.35-0.78-4.41-1.84
		c-3.63-3.59-6.98-7.45-10.22-11.46c6.19,3.05,12.14,6.81,18.63,8.96C340.59,470.71,347.49,471.18,354.4,472.4z"/>
	<path fill="#FCFCFC" d="M323.51,143.92c-10.38,0.05-20.76,0.09-31.14,0.15c-1.63,0.01-2.97-0.41-2.96-2.3
		c0.01-1.82,1.38-2.05,2.85-2.04c10.2,0.01,20.4-0.03,30.6,0.06c0.9,0.01,2.05,0.64,2.6,1.36c0.27,0.36-0.56,1.56-0.89,2.38
		C324.22,143.65,323.87,143.79,323.51,143.92z"/>
	<path fill="#EFEDED" d="M288.4,370.23c-1.18,2.75-2.18,5.09-3.19,7.43c-3.26-2.14-6.76-4.24-10.05-6.64
		c-5.2-3.79-6.95-9.09-6.07-15.42c2.7,8.01,6.2,15.34,15.27,18.24c1.45-1.93,2.97-3.96,4.69-6.24
		c3.68,11.55,12.66,17.23,22.32,22.22C302.88,390.42,290.96,380.48,288.4,370.23z"/>
	<path fill="#EFEDED" d="M364.31,231.2c2.26,1.84,4.53,3.68,6.91,5.62c1.69-1.7,1.29-3.35,0.09-5.15
		c-2.57-3.84-6.09-6.54-10.14-8.61c-2.83-1.45-5.73-2.76-8.57-4.19c-0.44-0.22-0.71-0.77-1.06-1.17c0.18-0.25,0.35-0.5,0.53-0.76
		c2,0.86,4.08,1.57,5.99,2.59c5.77,3.11,11.23,6.6,15.34,11.93c1.6,2.08,1.23,3.66,0.03,5.53c-0.46,0.71-1.08,1.52-1.09,2.29
		c-0.08,6.32-0.05,12.64-0.01,18.96c0,0.67,0.27,1.34,0.25,2.22c-5.2-7.33-11.06-13.9-19.65-17.36c0.15-0.26,0.31-0.51,0.46-0.77
		c2.85,1.62,5.82,3.07,8.51,4.92c2.75,1.89,5.23,4.18,8.27,6.66c0-5.01,0.12-9.49-0.09-13.95c-0.05-1.08-1.09-2.18-1.85-3.13
		c-1.43-1.77-2.99-3.44-4.5-5.15C363.93,231.53,364.12,231.36,364.31,231.2z"/>
	<path fill="#F6F6F6" d="M246.48,259.05c1.07,6.85,1.12,13.12-1.03,19.24c-0.24,0.69-0.97,1.5-1.64,1.71
		c-2.6,0.8-5.27,1.37-8.21,2.1C236.62,273.44,241.69,266.57,246.48,259.05z"/>
	<path fill="#F3F2F2" d="M337.44,488.35c15.02,0.05,29.87-1.24,44.34-6.36c0.36,2.37,0.67,4.37,1.01,6.59
		c-3.44,0.67-6.68,1.3-9.92,1.93c-0.06-0.19-0.11-0.39-0.17-0.58c1.87-0.77,3.71-1.61,5.61-2.28c1.69-0.59,1.97-1.58,1.06-3.36
		C365.89,490.22,352.07,493.53,337.44,488.35z"/>
	<path fill="#F5F4F4" d="M277.07,488.43c-6.81,1.69-13.71,3.53-20.81,1.9c-6.8-1.56-13.5-3.53-20.31-5.34
		c-1.08,2.52,1.32,2.42,2.45,3.11c1.31,0.8,2.81,1.3,4.22,1.93c-0.07,0.21-0.13,0.43-0.2,0.64c-3.24-0.7-6.47-1.4-10.06-2.18
		c0.42-2.25,0.84-4.51,1.27-6.81C247.71,487.8,262.44,487.5,277.07,488.43z"/>
	<path fill="#F3F2F2" d="M312.35,461.6c1.67,1.5,3.15,2.51,4.25,3.84c6.41,7.77,13.91,14.21,22.88,18.86
		c0.34,0.18,0.74,0.25,1.04,0.58c-6.64-0.43-12.31-3.45-17.97-6.65C316.37,474.73,313.34,469.3,312.35,461.6z"/>
	<path fill="#FAFAFA" d="M429.38,196.36c3.53-0.48,3.64-0.42,3.64,2.75c0.02,9.46,0.03,18.92,0.02,28.38c0,1.31,0.29,2.77-1.89,2.8
		c-2.14,0.04-1.98-1.32-1.98-2.69c0-9.73,0.01-19.46,0.03-29.19C429.2,197.71,429.32,197.01,429.38,196.36z"/>
	<path fill="#F6F6F6" d="M366.89,258.51c5.25,7.85,10.18,14.89,12.01,23.52c-3.48-1.66-7.02-3.01-10.14-5.01
		c-1.14-0.73-1.7-2.99-1.79-4.6C366.73,268.07,366.89,263.7,366.89,258.51z"/>
	<path fill="#FCFCFC" d="M181.51,230.84c0-4.23-0.09-8.47,0.08-12.69c0.04-0.86,0.97-2.24,1.69-2.39c1.44-0.3,2.15,0.81,2.15,2.33
		c-0.02,8.46-0.02,16.93,0,25.39c0,1.49-0.52,2.51-2.14,2.44c-1.43-0.06-1.82-1.01-1.8-2.38
		C181.54,239.31,181.5,235.07,181.51,230.84z"/>
	<path fill="#F6F5F5" d="M351.58,418.2c-0.54,4.24-0.79,8.15-1.65,11.93c-0.25,1.12-2.09,2.07-3.4,2.65
		c-0.52,0.23-1.81-0.57-2.35-1.23c-2.53-3.09-4.93-6.29-7.6-9.75C341.63,420.59,346.21,419.49,351.58,418.2z M346.86,427
		c-0.15-0.12-0.29-0.25-0.44-0.37c-0.45-0.43-0.85-1.15-1.37-1.25c-1.36-0.26-2.77-0.26-4.57-0.39c1.96,2.19,3.72,4.17,5.93,6.64
		c0.96-1.95,1.67-3.42,2.39-4.89c-0.2-0.13-0.39-0.26-0.59-0.39C347.77,426.57,347.32,426.79,346.86,427z"/>
	<path fill="#F8F8F8" d="M415.76,311.14c-2.39-3.74-4.73-7.52-7.2-11.22c-0.84-1.26-0.54-1.93,0.67-2.52
		c0.88-0.43,1.71-1.14,2.63-1.28c4.58-0.72,6.94-0.91,6.48,4.43c-0.29,3.41-0.78,6.81-1.18,10.21
		C416.7,310.89,416.23,311.01,415.76,311.14z"/>
	<path fill="#EBEAEA" d="M242.23,213.51c-2.13-1.62-1.09-3.78-0.7-5.61c1.68-7.9,7.07-11.72,14.73-12.87
		c3.94-0.59,7.94-0.93,11.8-1.83c5.15-1.2,9.43-4.14,13.23-7.77c1.69-1.62,3.38-3.25,5.06-4.88c0.13,0.14,0.25,0.29,0.38,0.43
		c-6.17,8.18-13.47,14.43-24.35,15.2c-3.66,0.26-7.41,0.96-10.86,2.19c-5.77,2.06-8.23,6.81-8.72,12.71
		c-0.04,0.54-0.11,1.07-0.16,1.61C242.5,212.96,242.36,213.24,242.23,213.51z"/>
	<path fill="#F6F5F5" d="M373.02,480.82c5.22-5.81,10.44-11.62,15.6-17.37c-0.22,3.94-0.46,8.39-0.74,13.35
		c-4.71,1.43-9.59,2.91-14.47,4.39C373.28,481.07,373.15,480.94,373.02,480.82z"/>
	<path fill="#F5F4F4" d="M378.98,405.18c0.89-4.11,1.69-7.78,2.49-11.45c-0.26-0.17-0.52-0.35-0.79-0.52
		c-1.25,0.42-2.5,0.84-3.87,1.31c3-4.04,5.9-7.96,8.88-11.96c0.42,2.64,0.94,5.19,1.21,7.78c0.31,3.04,0.19,5.98-2.26,8.39
		C382.69,400.65,381,402.86,378.98,405.18z"/>
	<path fill="#EFEDED" d="M321.55,378.97c-0.1,1.89-0.17,3.25-0.24,4.61c-0.3-0.01-0.59-0.02-0.89-0.03
		c0.16-2.23,0.32-4.47,0.45-6.37c3.15,1.31,6.33,2.81,9.63,3.97c3.19,1.11,5.84,0.07,7.59-2.8c4.7-7.71,5.69-16.09,4.47-24.89
		c-0.23-1.63-0.03-3.32,0.25-5.14c0.6,2.2,1.32,4.37,1.79,6.59c1.99,9.43-0.6,17.8-6.15,25.39c-2.18,2.97-4.92,3.65-8.48,2.47
		c-1.43-0.48-2.88-0.92-4.25-1.53C324.36,380.62,323.1,379.82,321.55,378.97z"/>
	<path fill="#F5F4F4" d="M378.12,453.92c-0.58-6.16,4.38-11.4,1.27-17.44c2.97-1.9,5.95-3.81,9.32-5.96
		C387.29,439.48,383.13,446.67,378.12,453.92z"/>
	<path fill="#F3F2F2" d="M297.85,458.8c-6.92-1.77-13.85-3.53-20.77-5.3c0.08-0.35,0.15-0.69,0.23-1.04
		c10.8,2.19,21.6,4.39,32.42,6.59c-2.44,2.01-26.82,3.88-29.54,2.36c5.85-0.71,11.81-1.43,17.78-2.15
		C297.93,459.11,297.89,458.96,297.85,458.8z"/>
	<path fill="#F5F4F4" d="M371.14,394.38c3.11-4.45,6.37-8.83,7.38-14.37c0.47-2.57,0.98-5.14,1.46-7.62
		c2.24,0.18,4.25,0.35,6.48,0.53c-2.77,8.92-8,16-14.93,21.93C371.4,394.7,371.27,394.54,371.14,394.38z"/>
	<path fill="#F5F4F4" d="M257.65,501.32c-4.37-0.22-8.71-0.29-13.03-0.7c-3.2-0.3-5.55,0.82-7.53,3.21
		c-1.55,1.88-3.38,3.4-6.47,3.44c0.65-2.72,1.22-5.28,1.91-7.82c0.11-0.39,0.71-0.86,1.14-0.92c8.15-1.18,16.13-0.48,23.92,2.23
		C257.63,500.78,257.62,500.94,257.65,501.32z"/>
	<path fill="#F8F8F8" d="M197.67,303.35c-3.69-4.86-0.66-9.22-0.88-13.53c-0.01-0.15,0.15-0.45,0.24-0.45
		c2.12-0.02,4.36-0.42,6.34,0.1c1.84,0.48,2.95,2.28,1.58,4.24C202.66,296.95,200.18,300.04,197.67,303.35z"/>
	<path fill="#FCFCFC" d="M185.46,204.26c-0.87,0.53-1.7,1.29-2.63,1.45c-0.32,0.06-1.29-1.38-1.3-2.14
		c-0.11-6.67-0.05-13.34-0.08-20.01c-0.01-1.41,0.43-2.12,2.02-2.13c1.69,0,1.94,0.9,1.94,2.22c0.03,6.67,0.06,13.34,0.1,20.01
		C185.5,203.86,185.48,204.06,185.46,204.26z"/>
	<path fill="#8D8C8D" d="M420.49,362.45c0.01,46.58,0.02,93.17,0.03,139.75c0,4.6,0.02,9.21-0.03,13.81
		c-0.01,0.86-0.29,1.72-0.44,2.58c-0.02-26.54-0.04-53.09-0.05-79.63c-0.01-24.56-0.01-49.12,0.02-73.68
		C420.02,364.34,420.33,363.39,420.49,362.45z"/>
	<path fill="#EFEDED" d="M270.46,429.29c-1.59-3.13-3.48-6.83-5.68-11.16c5.76,0.76,10.6,1.41,15.27,2.03
		C276.98,423.07,273.85,426.06,270.46,429.29z M269.36,423.01c-0.19,0.14-0.38,0.28-0.57,0.42c0.66,1.35,1.32,2.7,1.99,4.05
		c1.03-0.98,2.07-1.95,3.09-2.95c0.33-0.32,0.57-0.73,0.85-1.1c-0.1-0.12-0.21-0.24-0.31-0.35c-0.93,0.54-1.87,1.08-2.7,1.55
		C270.9,424.07,270.13,423.54,269.36,423.01z"/>
	<path fill="#EFEDED" d="M225.61,369.56c5.29-5.51,7.87-12.33,9.02-19.66c0.61-3.94,0.4-8.01,0.56-12.03
		c0.03-0.82,0.11-1.65,0.16-2.47c0.28-0.01,0.55-0.02,0.83-0.02c0.4,3.06,0.9,6.12,1.19,9.19c0.86,9.19-3.02,16.68-8.57,23.56
		c-0.32,0.4-0.46,0.94-0.69,1.42c0,0,0.09-0.02,0.09-0.02c-0.35,0.01-0.7,0.02-1.04,0.03C226.63,369.55,226.12,369.55,225.61,369.56
		z"/>
	<path fill="#F5F4F4" d="M261.04,389.39c-9.46-1.7-15.45-13.81-14.13-19.9C251.68,376.21,256.44,382.91,261.04,389.39z"/>
	<path fill="#EFEDED" d="M331.34,188.41c-13.25,0.64-23.42-6.82-21.55-15.91C313.77,182.17,321.82,185.81,331.34,188.41z"/>
	<path fill="#EFEDED" d="M388.65,441.98c-0.21,4.82-0.01,9.7-0.74,14.43c-0.8,5.18-4.84,8.6-8.13,12.37
		C384.2,460.28,386,451.02,388.65,441.98z"/>
	<path fill="#EFEDED" d="M259.79,451.15c-2.62-2.52-5.25-5.04-7.87-7.56c-0.14,0.1-0.27,0.2-0.41,0.3c0.95,4.38,1.9,8.76,2.85,13.14
		c-0.19,0.05-0.39,0.1-0.58,0.15c-2.1-5.49-4.2-10.98-6.29-16.43c4.62-0.65,9.14,2.84,12.71,9.97
		C260.07,450.87,259.93,451.01,259.79,451.15z"/>
	<path fill="#706F71" d="M426.04,450.26c-0.03-10.92-0.09-21.84-0.09-32.75c-0.01-19.49,0.01-38.98,0.02-58.47
		c0.19,0.36,0.53,0.71,0.53,1.07c0.01,29.88-0.01,59.76-0.03,89.64c0,0.18-0.05,0.36-0.07,0.54
		C426.28,450.27,426.16,450.27,426.04,450.26z"/>
	<path fill="#E8E6E7" d="M369.9,333.28c4.23,9.11,1.4,19.5-4.75,26.59C369.05,350.89,371.39,342.41,369.9,333.28z"/>
	<path fill="#EFEDED" d="M256.24,357.05c0.29,2.47,0.58,4.93,0.98,8.23c2.5-3.13,4.71-5.88,6.97-8.72
		c0.29,4.22-5.45,11.68-8.95,12.21c0-1.97,0-3.98,0-5.99c0-1.9,0-3.8,0-5.69C255.57,357.08,255.9,357.07,256.24,357.05z"/>
	<path fill="#EFEDED" d="M386.96,359.8c-6.26-0.13-11.64-0.58-15.9-5c2.13,0.74,4.26,1.49,6.56,2.29c-0.7-1.72-1.3-3.2-1.95-4.8
		C379.25,354.67,382.76,357,386.96,359.8z"/>
	<path fill="#EBEAEA" d="M405.84,418.52c-1.55,3.76-3.56,7.41-4.53,11.31c-0.94,3.81-0.82,7.89-1.15,11.68
		C395.72,432.49,400.76,425.48,405.84,418.52z"/>
	<path fill="#F3F2F2" d="M401.79,364.91c-5.11,4.1-10.64,5.08-15.92,4.58c3.04-1.65,6.57-3.59,10.13-5.46
		c0.41-0.22,1.06-0.07,1.58,0.02C398.86,364.28,400.12,364.57,401.79,364.91z"/>
	<path fill="#F3F2F2" d="M225.61,369.56c0.51,0,1.02-0.01,1.53-0.01c0.23,0.16,0.45,0.33,0.68,0.49c0.12-0.17,0.24-0.35,0.36-0.52
		c0,0-0.09,0.02-0.09,0.02c3.77-0.67,7.54-1.35,11.31-2.02c-2.81,4.27-9.95,5.66-13.47,5.19c-0.24-0.03-0.41-0.65-0.61-1
		c0.25-0.15,0.49-0.31,0.74-0.46c-0.06-0.06-0.11-0.12-0.17-0.17c-0.19,0.21-0.37,0.43-0.56,0.64c-0.37-0.27-0.75-0.54-1.12-0.81
		C224.69,370.45,225.15,370.01,225.61,369.56z"/>
	<path fill="#797779" d="M426.04,450.26c0.12,0.01,0.24,0.01,0.36,0.02c0.02,22.09,0.05,44.17,0.05,66.26
		c0,0.51-0.23,1.02-0.35,1.54c-0.05-2.07-0.15-4.13-0.15-6.2C425.97,491.34,426.01,470.8,426.04,450.26z"/>
	<path fill="#E8E6E7" d="M246.07,377.19c1.44,4.29,3.01,8.55,4.26,12.89c0.55,1.92,0.45,4.02,0.44,6.08
		c-2.41-6.04-5.05-12-5.5-18.56C245.54,377.47,245.8,377.33,246.07,377.19z"/>
	<path fill="#F3F2F2" d="M231.03,403.03c-1.56,0.45-2.89,2.27-3.98,5.23c-0.52,1.42-1.25,2.76-2.12,4.65
		c-1.16-4.78-0.58-6.49,4.71-14.33c0.55,1.86,0.93,3.17,1.32,4.48C230.96,403.05,231.03,403.03,231.03,403.03z"/>
	<path fill="#F6F5F5" d="M338.26,426.98c1.13,1.63,2.26,3.27,3.39,4.9c-0.14,0.12-0.28,0.24-0.42,0.36
		c-0.39-0.23-0.79-0.46-1.35-0.8c-0.68,4.37-1.35,8.61-2.01,12.85c-0.15-0.02-0.29-0.04-0.44-0.06c0-5.67,0-11.34,0-17.01
		C337.71,427.13,337.98,427.05,338.26,426.98z"/>
	<path fill="#939293" d="M420.44,208.56c0.02,19.01,0.05,38.02,0.07,57.02c0,1.62-0.06,3.24-0.08,4.86
		c-0.15-0.49-0.44-0.97-0.44-1.46c0.02-20.13,0.06-40.27,0.1-60.4C420.2,208.57,420.32,208.56,420.44,208.56z"/>
	<path fill="#EFEDED" d="M381.72,349.73c-0.43-8.18-0.87-16.35-1.3-24.53C384.03,333.17,382.46,341.5,381.72,349.73z"/>
	<path fill="#EFEDED" d="M266.92,427.75c0.64,1.02,1.22,2.08,1.95,3.03c0.86,1.12,1.45,1.89,0.26,3.41
		c-1.21,1.54,0.84,7.3,2.72,8.82c-3.05,0.38-3.25,0.42-3.86-3.04c-0.71-4-1.03-8.07-1.52-12.11
		C266.61,427.83,266.76,427.79,266.92,427.75z"/>
	<path fill="#868687" d="M420.44,208.56c-0.12,0.01-0.24,0.02-0.36,0.03c-0.02-16.83-0.05-33.67-0.06-50.5
		c0-2.16,0.03-4.31,0.05-6.47c0.16,0.78,0.46,1.56,0.46,2.34C420.52,172.16,420.47,190.36,420.44,208.56z"/>
	<path fill="#F3F2F2" d="M227.12,429.22c-2.28-0.75-3.5-9.65-2.33-14.74C228.08,419.05,226.81,424.11,227.12,429.22z"/>
	<path fill="#EFEDED" d="M222.19,372.25c-3.52-1.59-5.35-4.66-7.28-7.87c1.81-0.32,3.28-0.58,4.87-0.87
		c0.79,2.73,1.58,5.49,2.38,8.25C222.18,371.92,222.19,372.09,222.19,372.25z"/>
	<path fill="#6B696B" d="M426.13,211.88c-0.06-3.78-0.17-7.56-0.18-11.33c-0.02-13.34-0.01-26.68,0.01-40.02
		c0-0.8,0.11-1.61,0.16-2.41c0.12,0.69,0.35,1.38,0.35,2.07c0.02,16.63,0.02,33.26-0.01,49.89
		C426.47,210.68,426.25,211.28,426.13,211.88z"/>
	<path fill="#F3F2F2" d="M334.32,225.11c2.21-2.8,5.97-3.06,7.57-1.23c0.29,0.33,0.55,1.15,0.39,1.33
		c-0.63,0.68-1.52,1.76-2.16,1.67C338.3,226.61,336.55,225.84,334.32,225.11z"/>
	<path fill="#F3F2F2" d="M225.44,512.06c-0.18-0.37-0.37-0.73-0.55-1.1c5.05-2.54,10.52-2.54,16.03-2.36
		C235.76,509.76,230.6,510.91,225.44,512.06z"/>
	<path fill="#F5F4F4" d="M334.8,494.75c-0.18-0.04-0.36-0.05-0.53-0.11c-4.89-1.63-4.89-1.63-4.75-7.33c0.81,0,1.64,0,2.67,0
		c0,0.8,0.05,1.59-0.01,2.37c-0.18,2.43,0.58,3.99,3.34,4c0.31,0,0.62,0.68,0.93,1.04C335.91,494.72,335.36,494.73,334.8,494.75z"/>
	<path fill="#F3F2F2" d="M381.22,491.67c0.35,1.57,0.6,2.66,0.95,4.26c-3.02-0.44-5.82-0.84-8.61-1.25
		c-0.06-0.24-0.12-0.48-0.18-0.72C375.92,493.23,378.46,492.48,381.22,491.67z"/>
	<path fill="#797779" d="M426.07,269.87c-0.01-12.67-0.01-25.34-0.02-38.01c0.12,0.01,0.24,0.02,0.36,0.03
		c0.02,12.15,0.05,24.31,0.06,36.46C426.46,268.85,426.2,269.36,426.07,269.87z"/>
	<path fill="#F3F2F2" d="M233.67,495.81c0-1.28,0-2.41,0-4.06c2.69,0.61,5.24,1.19,7.8,1.77c0,0.27,0.01,0.55,0.01,0.82
		C238.92,494.82,236.37,495.3,233.67,495.81z"/>
	<path fill="#EFEDED" d="M208.16,231.99c2.67,4.73,3.17,9.7,2,14.87C209.49,241.91,208.82,236.95,208.16,231.99z"/>
	<path fill="#DADADB" d="M273.3,224.47c3.93-0.69,7.86-1.38,11.79-2.07c0.04,0.24,0.08,0.48,0.12,0.73
		c-3.93,0.7-7.85,1.41-11.78,2.11C273.38,224.98,273.34,224.72,273.3,224.47z"/>
	<path fill="#E8E6E7" d="M210.59,416.16c-0.46,2.88-0.92,5.77-1.37,8.65c-0.35-0.06-0.7-0.12-1.06-0.18c0.5-2.87,1-5.73,1.5-8.6
		C209.96,416.08,210.27,416.12,210.59,416.16z"/>
	<path fill="#6B696B" d="M426.41,231.89c-0.12-0.01-0.24-0.02-0.36-0.03c0.03-3.45,0.05-6.89,0.08-10.34
		C426.22,224.97,426.31,228.43,426.41,231.89z"/>
	<path fill="#636163" d="M211.7,332.62c0,2.44,0,4.87,0,7.31c-0.13,0.04-0.26,0.09-0.39,0.13c-0.15-0.67-0.3-1.34-0.45-2
		C211.14,336.25,211.42,334.44,211.7,332.62z"/>
	<path fill="#F8F8F8" d="M334.8,494.75c0.55-0.01,1.11-0.03,1.66-0.04c-0.18,0.72-0.36,1.44-0.54,2.17c-0.5,0-1,0-1.51,0
		C334.55,496.17,334.67,495.46,334.8,494.75z"/>
	<path fill="#151415" d="M273.1,243.3c0.94-0.37,1.87-0.74,2.81-1.11c0.04,0.36,0.08,0.72,0.12,1.09c-0.99,0-1.98,0-2.96,0
		L273.1,243.3z"/>
	<path fill="#EBEAEA" d="M241.79,218.32c-0.22-1.45-0.44-2.91-0.66-4.36c0.34-0.03,0.68-0.07,1.02-0.1c0,1.49,0,2.97,0,4.46
		C242.03,218.31,241.91,218.31,241.79,218.32z"/>
	<path fill="#151415" d="M266.73,255.21c-1.13,0.53-2.25,1.07-3.38,1.6C264.47,256.28,265.6,255.75,266.73,255.21z"/>
	<path fill="#797779" d="M322.47,441.8c-0.03-0.23-0.06-0.45-0.09-0.68c0.97,0.16,1.93,0.32,2.9,0.49c-0.03,0.2-0.06,0.39-0.1,0.59
		C324.27,442.07,323.37,441.94,322.47,441.8z"/>
	<path fill="#F5F4F4" d="M334.42,496.87c0.5,0,1,0,1.51,0c-0.01,0.54-0.01,1.09-0.02,1.63c-0.57-0.37-1.14-0.73-1.71-1.1
		C334.27,497.23,334.34,497.05,334.42,496.87z"/>
	<path fill="#CCCACB" d="M350.09,495.89c-0.35,0.3-0.71,0.59-1.06,0.89c-0.59-0.19-1.19-0.38-1.78-0.57
		c0.03-0.11,0.06-0.21,0.09-0.32C348.26,495.89,349.18,495.89,350.09,495.89z"/>
	<path fill="#F5F4F4" d="M340.99,517.42c-1-0.08-2.49,0.36-1.68-1.61C339.87,516.35,340.43,516.88,340.99,517.42z"/>
	<path fill="#797779" d="M304.47,442.03c1.32-0.08,2.64-0.17,3.96-0.25C307.11,441.86,305.79,441.95,304.47,442.03z"/>
	<path fill="#F5F4F4" d="M342.42,519.51c0.04-0.33,0.07-0.66,0.11-1c0.55,0.27,1.11,0.53,2.36,1.13
		C343.54,519.57,342.98,519.54,342.42,519.51z"/>
	<path fill="#EFEDED" d="M260.21,450.72c0.36,0.44,0.71,0.88,1.07,1.32c-0.14,0.15-0.29,0.3-0.43,0.46
		c-0.35-0.45-0.71-0.9-1.06-1.36C259.93,451.01,260.07,450.87,260.21,450.72z"/>
	<path fill="#151415" d="M280.71,242.8c0.37,0.14,0.73,0.28,1.1,0.41C281.45,243.08,281.08,242.94,280.71,242.8z"/>
	<path fill="#EBEAEA" d="M286.35,180.55c0.39-0.38,0.79-0.77,1.18-1.15c0.1,0.18,0.21,0.35,0.31,0.53c-0.37,0.35-0.74,0.7-1.12,1.05
		C286.6,180.84,286.47,180.69,286.35,180.55z"/>
	<path fill="#F5F4F4" d="M371.53,394.85c-0.33,0.25-0.66,0.5-0.99,0.74c-0.17-0.16-0.34-0.32-0.51-0.49
		c0.37-0.24,0.74-0.49,1.1-0.73C371.27,394.54,371.4,394.7,371.53,394.85z"/>
	<path fill="#DADADB" d="M241.79,218.32c0.12-0.01,0.24,0,0.36,0c0,0.41,0,0.82,0,1.23c-0.12,0-0.24,0-0.36,0
		C241.79,219.13,241.79,218.72,241.79,218.32z"/>
	<path fill="#EFEDED" d="M225.35,371.71c0.19-0.21,0.37-0.43,0.56-0.64c0.06,0.06,0.11,0.12,0.17,0.17
		c-0.25,0.15-0.49,0.31-0.74,0.46L225.35,371.71z"/>
	<path fill="#F3F2F2" d="M222.19,372.25c0-0.16-0.01-0.32-0.03-0.48c0.36-0.21,0.72-0.43,1.08-0.64c0.36-0.19,0.73-0.38,1.09-0.57
		C223.62,371.12,222.91,371.68,222.19,372.25z"/>
	<path fill="#C3C1C1" d="M396.13,548.68c0.37,0.03,0.75,0.06,1.12,0.09C396.87,548.74,396.5,548.71,396.13,548.68z"/>
	<path fill="#F5F4F4" d="M245.58,405.75c0.11,0.33,0.21,0.66,0.32,0.99c-0.24-0.17-0.49-0.34-0.73-0.51
		C245.3,406.07,245.44,405.91,245.58,405.75z"/>
	<path fill="#CCCACB" d="M323.51,143.92c0.36-0.13,0.71-0.26,1.07-0.4C324.22,143.65,323.87,143.79,323.51,143.92z"/>
	<path fill="#EBEAEA" d="M189.57,359.26c-0.3-0.01-0.59-0.02-0.89-0.02c0.07-0.19,0.14-0.37,0.21-0.56
		C189.12,358.87,189.35,359.06,189.57,359.26z"/>
	<path fill="#F6F5F5" d="M373.42,481.19c-0.29,0.18-0.59,0.37-0.88,0.55c-0.07-0.1-0.14-0.2-0.22-0.3c0.23-0.21,0.47-0.42,0.7-0.63
		C373.15,480.94,373.28,481.07,373.42,481.19z"/>
	<path fill="#CCCACB" d="M342.53,191.75c-0.37-0.11-0.75-0.22-1.12-0.34C341.78,191.53,342.15,191.64,342.53,191.75z"/>
	<path fill="#F3F2F2" d="M223.25,371.12c0.37-0.19,0.73-0.37,1.09-0.56C223.97,370.74,223.61,370.93,223.25,371.12z"/>
	<path fill="#EBEAEA" d="M289.75,178.05c-0.14,0.1-0.29,0.28-0.42,0.26c-0.13-0.01-0.25-0.22-0.37-0.34
		c0.14-0.07,0.28-0.21,0.41-0.2C289.51,177.79,289.63,177.95,289.75,178.05z"/>
	<path fill="#151415" d="M263.36,256.83c-0.13-0.19-0.26-0.37-0.39-0.56C263.1,256.46,263.23,256.64,263.36,256.83z"/>
	<path fill="#151415" d="M267.26,247.61c0.14-0.14,0.29-0.28,0.43-0.41C267.55,247.34,267.41,247.48,267.26,247.61z"/>
	<path fill="#DADADB" d="M242.63,212.69c-0.14,0.27-0.27,0.54-0.41,0.82C242.36,213.24,242.5,212.96,242.63,212.69z"/>
	<path fill="#EBEAEA" d="M287.89,179.05c0.27-0.13,0.54-0.27,0.8-0.4c-0.12,0.23-0.24,0.47-0.35,0.7
		C288.2,179.23,288.05,179.13,287.89,179.05z"/>
	<path fill="#DADADB" d="M306.19,422.79c-0.18-0.02-0.36-0.03-0.54-0.05C305.82,422.76,306.01,422.78,306.19,422.79z"/>
	<path fill="#EBEAEA" d="M288.34,179.34c-0.17,0.19-0.33,0.39-0.5,0.58c-0.1-0.18-0.21-0.35-0.31-0.53c0.08-0.16,0.2-0.28,0.36-0.36
		C288.05,179.13,288.2,179.23,288.34,179.34z"/>
	<path fill="#797779" d="M315.31,441.81c0.24,0.01,0.48,0.02,0.72,0.03C315.79,441.83,315.55,441.82,315.31,441.81z"/>
	<path fill="#B3B2B0" d="M310.48,212.2c0.2,0,0.41,0.01,0.61,0.01C310.89,212.21,310.69,212.21,310.48,212.2z"/>
	<path fill="#555355" d="M185.46,204.26c0.02-0.2,0.03-0.4,0.05-0.6C185.5,203.86,185.48,204.06,185.46,204.26z"/>
	<path fill="#151415" d="M266.13,248.67c0.17-0.18,0.33-0.35,0.5-0.53C266.46,248.31,266.29,248.49,266.13,248.67z"/>
	<path fill="#151415" d="M266.63,248.13c0.19-0.15,0.37-0.3,0.56-0.45C267.01,247.83,266.82,247.98,266.63,248.13z"/>
	<path fill="#F5F4F4" d="M342.54,518.53c-0.19-0.13-0.39-0.27-0.58-0.4C342.16,518.26,342.35,518.39,342.54,518.53z"/>
	<path fill="#B3B2B0" d="M303.44,212.17c0.21-0.01,0.41-0.01,0.62-0.02C303.85,212.16,303.64,212.17,303.44,212.17z"/>
	<path fill="#B3B2B0" d="M306.15,212.14c0.21,0,0.41,0.01,0.62,0.01C306.56,212.15,306.35,212.15,306.15,212.14z"/>
	<path fill="#C3C1C1" d="M217.83,548.79c0.2-0.03,0.39-0.07,0.59-0.1C218.22,548.72,218.02,548.76,217.83,548.79z"/>
	<path fill="#DADADB" d="M294.66,425.89c-0.13-0.2-0.25-0.4-0.38-0.61C294.41,425.48,294.54,425.69,294.66,425.89z"/>
	<path fill="#121012" d="M234.85,301.93c0.24-0.19,0.49-0.37,0.73-0.56c-0.12,0.33-0.24,0.65-0.36,0.98
		C235.1,302.21,234.98,302.07,234.85,301.93z"/>
	<path fill="#121012" d="M351.32,323.72c-0.02-0.22-0.04-0.44-0.07-0.66c0.16,0.12,0.33,0.24,0.49,0.36
		C351.62,323.54,351.48,323.64,351.32,323.72z"/>
	<path fill="#121012" d="M366.69,300.43c0.01,0.24,0.02,0.48,0.03,0.72c-0.15-0.13-0.29-0.27-0.44-0.4
		C366.41,300.63,366.55,300.53,366.69,300.43z"/>
	<path fill="#121012" d="M346.06,272.25c0.04,0.21,0.07,0.41,0.11,0.62c-0.15-0.1-0.3-0.2-0.46-0.31
		C345.81,272.44,345.93,272.34,346.06,272.25z"/>
	<path fill="#121012" d="M396.95,517.04c0.49,0.55,0.98,1.09,1.47,1.64c-0.12,0.12-0.24,0.23-0.36,0.35
		c-0.48-0.51-0.95-1.01-1.43-1.52C396.74,517.36,396.84,517.2,396.95,517.04z"/>
	<path fill="#121012" d="M396.59,516.69c0.17,0.06,0.29,0.18,0.35,0.36c-0.1,0.16-0.2,0.31-0.31,0.47
		c-0.21-0.16-0.41-0.31-0.62-0.47C396.21,516.93,396.4,516.81,396.59,516.69z"/>
	<path fill="#F3F2F2" d="M216.53,524.42c-0.24-0.38-0.48-0.76-0.72-1.14c0.16-0.07,0.32-0.14,0.48-0.22
		c0.14,0.38,0.27,0.76,0.41,1.14c0,0,0.04,0.2,0.04,0.2L216.53,524.42z"/>
	<path fill="#121012" d="M358.41,501.42c-0.35,0.11-0.69,0.22-1.04,0.33c-0.12-0.15-0.23-0.31-0.35-0.46
		c0.28-0.13,0.57-0.27,0.85-0.4C358.06,501.07,358.23,501.25,358.41,501.42z"/>
	<path fill="#1F1F20" d="M346.86,427c0.45-0.22,0.9-0.43,1.35-0.65c0.2,0.13,0.39,0.26,0.59,0.39c-0.72,1.47-1.43,2.93-2.39,4.89
		c-2.21-2.48-3.97-4.45-5.93-6.64c1.8,0.13,3.21,0.13,4.57,0.39c0.52,0.1,0.92,0.82,1.37,1.25c-0.36,0.39-0.72,0.78-1.07,1.17
		c0.32,0.31,0.64,0.62,0.96,0.93C346.5,428.15,346.68,427.58,346.86,427z"/>
	<path fill="#151415" d="M269.36,423.01c0.77,0.53,1.54,1.06,2.34,1.61c0.83-0.48,1.76-1.01,2.7-1.55c0.1,0.12,0.21,0.24,0.31,0.35
		c-0.28,0.37-0.52,0.78-0.85,1.1c-1.01,1-2.05,1.97-3.09,2.95c-0.66-1.35-1.32-2.7-1.99-4.05
		C268.98,423.29,269.17,423.15,269.36,423.01z"/>
	<path fill="#121012" d="M228.18,369.51c-0.12,0.17-0.24,0.35-0.36,0.52c-0.23-0.16-0.45-0.33-0.68-0.49
		C227.49,369.54,227.84,369.53,228.18,369.51z"/>
	<path fill="#F6F5F5" d="M346.86,427c-0.18,0.58-0.37,1.15-0.55,1.73c-0.32-0.31-0.64-0.62-0.96-0.93c0.36-0.39,0.72-0.78,1.07-1.17
		C346.57,426.76,346.72,426.88,346.86,427z"/>
</g>
</svg>
